<svg xmlns="http://www.w3.org/2000/svg" viewBox="0 0 24 24" width="32" height="32">
  <!-- Background -->
  <rect x="0" y="0" width="24" height="24" rx="6" fill="#0a0f1e" />
  
  <!-- Brackets -->
  <path d="M7 4c0 0-3 0-3 3s2 4 2 5-2 2-2 5 3 3 3 3" stroke="#64748b" stroke-width="2.5" stroke-linecap="round" fill="none" />
  <path d="M17 4c0 0 3 0 3 3s-2 4-2 5 2 2 2 5-3 3-3 3" stroke="#64748b" stroke-width="2.5" stroke-linecap="round" fill="none" />
  
  <!-- Staircase V -->
  <rect x="8" y="7" width="4" height="2" rx="1" fill="#38bdf8" opacity="0.5" />
  <rect x="9.5" y="10.5" width="4" height="2" rx="1" fill="#38bdf8" opacity="0.8" />
  <rect x="11" y="14" width="2" height="2" rx="1" fill="#00d4ff" />
  <rect x="10.5" y="10.5" width="4" height="2" rx="1" fill="#38bdf8" opacity="0.8" />
  <rect x="12" y="7" width="4" height="2" rx="1" fill="#38bdf8" opacity="0.5" />
</svg>
